PathFileType	4	(X/Y/Z)	RBDS021static.trc
DataRate	CameraRate	NumFrames	NumMarkers	Units	OrigDataRate	OrigDataStartFrame	OrigNumFrames
150.000000	150.000000	4	48	mm	150.000000	18	150
Frame#	Time	L.Ankle			L.Ankle.Medial			L.ASIS			L.GTR			L.Heel.Bottom			L.Heel.Lateral			L.Heel.Top			L.HF			L.Iliac.Crest			L.Knee			L.Knee.Medial			L.MT1			L.MT2			L.MT5			L.PSIS			L.Shank.Bottom.Lateral			L.Shank.Bottom.Medial			L.Shank.Top.Lateral			L.Shank.Top.Medial			L.Thigh.Bottom.Lateral			L.Thigh.Bottom.Medial			L.Thigh.Top.Lateral			L.Thigh.Top.Medial			L.TT			R.Ankle			R.Ankle.Medial			R.ASIS			R.GTR			R.Heel.Bottom			R.Heel.Lateral			R.Heel.Top			R.HF			R.Iliac.Crest			R.Knee			R.Knee.Medial			R.MT1			R.MT2			R.MT5			R.PSIS			R.Shank.Bottom.Lateral			R.Shank.Bottom.Medial			R.Shank.Top.Lateral			R.Shank.Top.Medial			R.Thigh.Bottom.Lateral			R.Thigh.Bottom.Medial			R.Thigh.Top.Lateral			R.Thigh.Top.Medial			R.TT			
		X1	Y1	Z1	X2	Y2	Z2	X3	Y3	Z3	X4	Y4	Z4	X5	Y5	Z5	X6	Y6	Z6	X7	Y7	Z7	X8	Y8	Z8	X9	Y9	Z9	X10	Y10	Z10	X11	Y11	Z11	X12	Y12	Z12	X13	Y13	Z13	X14	Y14	Z14	X15	Y15	Z15	X16	Y16	Z16	X17	Y17	Z17	X18	Y18	Z18	X19	Y19	Z19	X20	Y20	Z20	X21	Y21	Z21	X22	Y22	Z22	X23	Y23	Z23	X24	Y24	Z24	X25	Y25	Z25	X26	Y26	Z26	X27	Y27	Z27	X28	Y28	Z28	X29	Y29	Z29	X30	Y30	Z30	X31	Y31	Z31	X32	Y32	Z32	X33	Y33	Z33	X34	Y34	Z34	X35	Y35	Z35	X36	Y36	Z36	X37	Y37	Z37	X38	Y38	Z38	X39	Y39	Z39	X40	Y40	Z40	X41	Y41	Z41	X42	Y42	Z42	X43	Y43	Z43	X44	Y44	Z44	X45	Y45	Z45	X46	Y46	Z46	X47	Y47	Z47	X48	Y48	Z48	

19	0.12	713.3734130859375	110.9065170288086	1037.7216796875	729.83642578125	122.4799499511719	1118.848510742188	863.9061279296875	1002.962768554688	1112.973022460938	788.6182250976563	920.58154296875	1038.36328125	635.9808349609375	40.15032577514648	1086.0205078125	665.5305786132813	61.45135116577148	1041.3017578125	645.7069702148438	86.84983062744141	1085.966186523438	734.2017211914063	455.2815246582031	1019.929809570313	776.9173583984375	1061.95947265625	1062.134765625	754.2469482421875	533.1409912109375	1027.779174804688	726.4774780273438	504.1055297851563	1155.271240234375	851.7965087890625	57.2349967956543	1126.747924804688	863.9663696289063	62.49796676635742	1082.458618164063	821.5261840820313	47.70394134521484	1012.863830566406	679.6910400390625	1023.097106933594	1189.388671875	711.0431518554688	183.2546081542969	1028.715576171875	668.8660278320313	186.8314514160156	1064.539428710938	705.034912109375	262.5039367675781	1014.896118164063	663.8019409179688	266.4115600585938	1049.347045898438	762.1649780273438	657.6609497070313	1021.532958984375	699.6049194335938	668.4083251953125	1054.662719726563	774.2514038085938	766.9050903320313	1014.406127929688	714.5187377929688	777.4843139648438	1046.572265625	789.1464233398438	437.9248657226563	1074.108520507813	707.1809692382813	103.2436828613281	1422.320556640625	731.7706298828125	124.4242172241211	1341.31298828125	864.967041015625	1004.729675292969	1337.421752929688	792.736328125	919.474609375	1409.312744140625	635.09375	40.57968902587891	1372.2548828125	662.802978515625	59.56692123413086	1417.422607421875	643.6366577148438	85.08834838867188	1372.845581054688	738.70263671875	461.6757202148438	1431.8525390625	795.0486450195313	1059.973266601563	1384.393432617188	756.2138061523438	534.8582763671875	1419.16259765625	748.5176391601563	507.3606872558594	1286.721069335938	845.11865234375	58.04357528686523	1333.611083984375	860.2516479492188	68.16191101074219	1384.901611328125	823.0983276367188	50.49251556396484	1446.07666015625	678.9302368164063	1014.37109375	1266.39306640625	694.3593139648438	186.7344970703125	1426.39990234375	664.43310546875	193.8963928222656	1385.397583007813	694.8507690429688	270.8492431640625	1439.181762695313	660.5215454101563	273.5968322753906	1398.114501953125	764.4369506835938	662.9107055664063	1425.777954101563	700.7303466796875	665.6132202148438	1388.090942382813	765.3317260742188	772.490966796875	1425.3134765625	706.7003784179688	774.853759765625	1387.091552734375	795.9929809570313	435.3298645019531	1374.72314453125	
20	0.1266666666666667	713.3595581054688	110.9055633544922	1037.720336914063	729.8387451171875	122.4840087890625	1118.850708007813	863.9264526367188	1002.974487304688	1112.998413085938	788.6490478515625	920.5885620117188	1038.358276367188	635.9733276367188	40.15273666381836	1086.005493164063	665.5213012695313	61.45076370239258	1041.305908203125	645.7042846679688	86.85543823242188	1085.961059570313	734.2511596679688	455.2894592285156	1019.935180664063	776.978271484375	1061.980834960938	1062.150390625	754.2899169921875	533.1480102539063	1027.765380859375	726.5137939453125	504.1162109375	1155.270874023438	851.80322265625	57.22868347167969	1126.741333007813	863.9703979492188	62.50235748291016	1082.445556640625	821.5200805664063	47.70771408081055	1012.863342285156	679.7042236328125	1023.099731445313	1189.387329101563	711.0543823242188	183.2531890869141	1028.704467773438	668.877197265625	186.8309020996094	1064.522827148438	705.0543212890625	262.5035400390625	1014.892272949219	663.8216552734375	266.4136047363281	1049.34228515625	762.2129516601563	657.6575927734375	1021.533447265625	699.64501953125	668.403564453125	1054.651733398438	774.3003540039063	766.9129638671875	1014.412231445313	714.5758056640625	777.48095703125	1046.570434570313	789.1736450195313	437.9176635742188	1074.098266601563	707.17822265625	103.2421875	1422.315307617188	731.7645263671875	124.4209594726563	1341.31396484375	864.9766845703125	1004.74267578125	1337.413696289063	792.7310180664063	919.4733276367188	1409.311889648438	635.0906982421875	40.58370971679688	1372.257934570313	662.8038940429688	59.55208969116211	1417.408935546875	643.6481323242188	85.08666229248047	1372.842041015625	738.7081298828125	461.6756286621094	1431.848876953125	795.0638427734375	1059.997314453125	1384.387084960938	756.22998046875	534.8599853515625	1419.16357421875	748.5382080078125	507.3632507324219	1286.718994140625	845.099853515625	58.06698608398438	1333.595947265625	860.2542724609375	68.16657257080078	1384.909790039063	823.0958251953125	50.48833084106445	1446.0732421875	678.9277954101563	1014.384704589844	1266.384399414063	694.3568115234375	186.7364196777344	1426.402099609375	664.4397583007813	193.9011840820313	1385.382080078125	694.8578491210938	270.8503112792969	1439.181396484375	660.521728515625	273.6005249023438	1398.098510742188	764.43505859375	662.9154663085938	1425.790283203125	700.7403564453125	665.6121215820313	1388.079711914063	765.3404541015625	772.50146484375	1425.302001953125	706.7086181640625	774.8590087890625	1387.0830078125	796.007080078125	435.3324279785156	1374.72119140625	
21	0.1333333333333333	713.3707885742188	110.9152603149414	1037.716918945313	729.8365478515625	122.4926071166992	1118.84326171875	863.9588623046875	1002.981872558594	1113.014038085938	788.697021484375	920.5885009765625	1038.359130859375	635.9791870117188	40.15832901000977	1086.012573242188	665.5257568359375	61.45408630371094	1041.298828125	645.705810546875	86.85940551757813	1085.955932617188	734.2791137695313	455.2867126464844	1019.92041015625	777.0269775390625	1062.0029296875	1062.171997070313	754.3486328125	533.1350708007813	1027.782592773438	726.5570068359375	504.1101989746094	1155.263305664063	851.8034057617188	57.23294448852539	1126.744018554688	863.9827270507813	62.50271606445313	1082.445190429688	821.5313110351563	47.70938110351563	1012.857727050781	679.73388671875	1023.091125488281	1189.3671875	711.0656127929688	183.2552185058594	1028.705200195313	668.885986328125	186.8461761474609	1064.512817382813	705.0734252929688	262.4960632324219	1014.890380859375	663.8438110351563	266.4330139160156	1049.346435546875	762.2647094726563	657.6480712890625	1021.540344238281	699.6958618164063	668.399169921875	1054.635498046875	774.3453369140625	766.9111328125	1014.406066894531	714.6295776367188	777.476806640625	1046.568115234375	789.2101440429688	437.9219665527344	1074.086181640625	707.1842651367188	103.2413940429688	1422.319580078125	731.7573852539063	124.4136352539063	1341.304077148438	864.9873046875	1004.751892089844	1337.419555664063	792.7386474609375	919.4774169921875	1409.31591796875	635.0910034179688	40.5845947265625	1372.258178710938	662.8056030273438	59.56354141235352	1417.424682617188	643.646484375	85.09095001220703	1372.837768554688	738.7152709960938	461.6818237304688	1431.835205078125	795.0703735351563	1060.024047851563	1384.379638671875	756.2361450195313	534.8583374023438	1419.163452148438	748.5531005859375	507.3616943359375	1286.708618164063	845.09619140625	58.06230545043945	1333.593994140625	860.2515258789063	68.16489410400391	1384.9140625	823.09033203125	50.4874153137207	1446.072143554688	678.9437866210938	1014.358947753906	1266.378784179688	694.355224609375	186.7445220947266	1426.394653320313	664.4500732421875	193.9037475585938	1385.388427734375	694.8624267578125	270.856689453125	1439.171508789063	660.5316772460938	273.5964660644531	1398.092651367188	764.4451904296875	662.9227905273438	1425.780883789063	700.750244140625	665.6182861328125	1388.07861328125	765.3414306640625	772.5061645507813	1425.296142578125	706.712158203125	774.8560791015625	1387.082763671875	796.003662109375	435.3245849609375	1374.71826171875	
22	0.14	713.3602294921875	110.9139709472656	1037.7177734375	729.8406372070313	122.5096664428711	1118.862670898438	863.9832763671875	1002.994873046875	1113.049438476563	788.7264404296875	920.5807495117188	1038.365112304688	635.9784545898438	40.16128921508789	1086.005737304688	665.5217895507813	61.462646484375	1041.293823242188	645.6963500976563	86.85861206054688	1085.972412109375	734.31884765625	455.2755126953125	1019.918151855469	777.0874633789063	1062.02294921875	1062.177490234375	754.3867797851563	533.1359252929688	1027.777709960938	726.5853271484375	504.1099548339844	1155.274047851563	851.8065795898438	57.24009704589844	1126.734130859375	863.97509765625	62.51353454589844	1082.435791015625	821.5203857421875	47.71017837524414	1012.861450195313	679.753173828125	1023.092346191406	1189.367431640625	711.075927734375	183.2574768066406	1028.70458984375	668.9002685546875	186.8490142822266	1064.509155273438	705.0957641601563	262.5021362304688	1014.889770507813	663.860107421875	266.4330139160156	1049.33056640625	762.3109741210938	657.6376953125	1021.547607421875	699.7356567382813	668.3858032226563	1054.634887695313	774.3876953125	766.9013061523438	1014.410583496094	714.670166015625	777.4664306640625	1046.55908203125	789.2598266601563	437.9251708984375	1074.08203125	707.1738891601563	103.2467956542969	1422.312255859375	731.7662963867188	124.4264831542969	1341.2880859375	864.9978637695313	1004.7626953125	1337.4345703125	792.7434692382813	919.47412109375	1409.318237304688	635.0921630859375	40.58165740966797	1372.253051757813	662.8028564453125	59.57422637939453	1417.414306640625	643.649658203125	85.08956909179688	1372.828979492188	738.7264404296875	461.68359375	1431.846801757813	795.0885009765625	1060.043701171875	1384.377197265625	756.2535400390625	534.870361328125	1419.156982421875	748.5615844726563	507.3643798828125	1286.707153320313	845.0925903320313	58.07660293579102	1333.583374023438	860.2554931640625	68.16407012939453	1384.898193359375	823.087890625	50.48684310913086	1446.0693359375	678.9503784179688	1014.370300292969	1266.37353515625	694.3507690429688	186.7545928955078	1426.388793945313	664.4536743164063	193.906005859375	1385.381469726563	694.8613891601563	270.8652954101563	1439.177124023438	660.536376953125	273.6011657714844	1398.099365234375	764.4515380859375	662.9150390625	1425.784912109375	700.7618408203125	665.6177368164063	1388.082397460938	765.3497924804688	772.5056762695313	1425.314208984375	706.7242431640625	774.8512573242188	1387.076293945313	796.0162963867188	435.3311767578125	1374.720458984375	
